<svg id="gps_fixed-24px" xmlns="http://www.w3.org/2000/svg" width="38.212" height="38.212" viewBox="0 0 38.212 38.212">
  <path id="Path_43" data-name="Path 43" d="M0,0H38.212V38.212H0Z" fill="none"/>
  <path id="Path_44" data-name="Path 44" d="M18.514,12.145a6.369,6.369,0,1,0,6.369,6.369A6.367,6.367,0,0,0,18.514,12.145Zm14.234,4.777A14.32,14.32,0,0,0,20.106,4.28V1H16.922V4.28A14.32,14.32,0,0,0,4.28,16.922H1v3.184H4.28A14.32,14.32,0,0,0,16.922,32.748v3.28h3.184v-3.28A14.32,14.32,0,0,0,32.748,20.106h3.28V16.922h-3.28ZM18.514,29.659A11.145,11.145,0,1,1,29.659,18.514,11.137,11.137,0,0,1,18.514,29.659Z" transform="translate(0.592 0.592)" fill="#eb6b2a"/>
</svg>
