<svg xmlns="http://www.w3.org/2000/svg" width="373.24" height="486.3" viewBox="0 0 373.24 486.3">
  <g id="placeholder" transform="translate(-56.53)">
    <path id="Path_53" data-name="Path 53" d="M243.15,0V104.4a80,80,0,1,1,0,160V486.3L389.58,302.2a184.588,184.588,0,0,0,40.19-115.58C429.77,83.72,346.05,0,243.15,0Z" fill="#eb6b2a"/>
    <path id="Path_54" data-name="Path 54" d="M323.15,184.4a80.087,80.087,0,0,0-80-80v160A80.093,80.093,0,0,0,323.15,184.4Z" fill="#eb6b2a"/>
    <path id="Path_55" data-name="Path 55" d="M163.15,184.4a80.087,80.087,0,0,1,80-80V0C140.25,0,56.53,83.72,56.53,186.62A184.583,184.583,0,0,0,96.76,302.24L243.15,486.3V264.4A80.093,80.093,0,0,1,163.15,184.4Z" fill="#eb6b2a"/>
    <path id="Path_56" data-name="Path 56" d="M163.15,184.4a80.093,80.093,0,0,0,80,80v-160A80.087,80.087,0,0,0,163.15,184.4Z" fill="#eb6b2a"/>
  </g>
</svg>
