<svg id="directions_bike-24px" xmlns="http://www.w3.org/2000/svg" width="146.361" height="146.361" viewBox="0 0 146.361 146.361">
  <path id="Path_5" data-name="Path 5" d="M0,0H146.361V146.361H0Z" fill="none"/>
  <path id="Path_6" data-name="Path 6" d="M94.525,25.894a12.2,12.2,0,1,0-12.2-12.2A12.233,12.233,0,0,0,94.525,25.894ZM30.492,65.533a30.492,30.492,0,0,0,0,60.984,30.492,30.492,0,0,0,0-60.984Zm0,51.836a21.344,21.344,0,0,1,0-42.689,21.344,21.344,0,0,1,0,42.689ZM65.863,56.385,80.5,41.749l4.879,4.879a42.723,42.723,0,0,0,31.1,12.807v-12.2A30.3,30.3,0,0,1,94.525,38.09L82.938,26.5a14.953,14.953,0,0,0-9.757-3.659c-3.659,0-6.708,1.22-8.538,3.659L47.567,43.579a12.04,12.04,0,0,0-3.659,8.538c0,3.659,1.22,6.708,3.659,8.538L67.082,77.73v30.492h12.2V70.412Zm50.007,9.148a30.492,30.492,0,1,0,30.492,30.492A30.2,30.2,0,0,0,115.869,65.533Zm0,51.836a21.344,21.344,0,1,1,21.344-21.344A21.607,21.607,0,0,1,115.869,117.369Z" transform="translate(0 7.648)" fill="#eb6b2a"/>
</svg>
