<svg xmlns="http://www.w3.org/2000/svg" width="421.92" height="482.193" viewBox="0 0 421.92 482.193">
  <g id="user" transform="translate(-34.445)">
    <path id="Path_53" data-name="Path 53" d="M258.331,241.1A120.548,120.548,0,1,1,378.879,120.549,120.687,120.687,0,0,1,258.331,241.1Zm0-210.959a90.411,90.411,0,1,0,90.411,90.411,90.51,90.51,0,0,0-90.411-90.411Z" transform="translate(-12.926)" fill="#eb6b2a"/>
    <path id="Path_54" data-name="Path 54" d="M441.3,521.116H49.514a15.06,15.06,0,0,1-15.069-15.069V402.319a45.188,45.188,0,0,1,20.764-38.2c113.161-70.59,267.334-70.575,380.378-.015a45.212,45.212,0,0,1,20.778,38.215V506.047A15.06,15.06,0,0,1,441.3,521.116ZM64.582,490.98H426.228V402.319a14.863,14.863,0,0,0-6.607-12.655c-103.464-64.585-244.894-64.63-348.444.015a14.842,14.842,0,0,0-6.593,12.641Z" transform="translate(0 -38.923)" fill="#eb6b2a"/>
  </g>
</svg>
